<?xml version="1.0" encoding="UTF-8"?>
<mxfile host="app.diagrams.net" modified="2023-12-21T08:37:21.644Z" agent="Mozilla/5.0 (Windows NT 10.0; Win64; x64) AppleWebKit/537.36 (KHTML, like Gecko) Chrome/120.0.0.0 Safari/537.36 Edg/120.0.0.0" etag="9aZAw-p8E8v0-LnwhnBl" version="22.1.11" type="google">
  <diagram name="第 1 页" id="SdBCGy6qiX4zF8PBchx3">
    <mxGraphModel dx="1042" dy="569" grid="1" gridSize="10" guides="1" tooltips="1" connect="1" arrows="1" fold="1" page="1" pageScale="1" pageWidth="827" pageHeight="1169" math="0" shadow="0">
      <root>
        <mxCell id="0" />
        <mxCell id="1" parent="0" />
        <mxCell id="RXuOXOCUmDhPivu8_CJT-1" value=":car" style="rounded=0;whiteSpace=wrap;html=1;fillColor=#d5e8d4;strokeColor=#82b366;fontSize=30;" parent="1" vertex="1">
          <mxGeometry x="510" y="270" width="80" height="40" as="geometry" />
        </mxCell>
        <mxCell id="U6kOpqA4BYuFInqFqMkD-1" value="管理員" style="shape=umlActor;verticalLabelPosition=bottom;verticalAlign=top;html=1;outlineConnect=0;fillColor=#d5e8d4;strokeColor=#82b366;" parent="1" vertex="1">
          <mxGeometry x="100" y="90" width="30" height="60" as="geometry" />
        </mxCell>
        <mxCell id="U6kOpqA4BYuFInqFqMkD-3" value="" style="html=1;points=[[0,0,0,0,5],[0,1,0,0,-5],[1,0,0,0,5],[1,1,0,0,-5]];perimeter=orthogonalPerimeter;outlineConnect=0;targetShapes=umlLifeline;portConstraint=eastwest;newEdgeStyle={&quot;curved&quot;:0,&quot;rounded&quot;:0};fillColor=#d5e8d4;strokeColor=#82b366;" parent="1" vertex="1">
          <mxGeometry x="110" y="180" width="10" height="290" as="geometry" />
        </mxCell>
        <mxCell id="U6kOpqA4BYuFInqFqMkD-9" value=":CarCatelog" style="rounded=0;whiteSpace=wrap;html=1;fillColor=#d5e8d4;strokeColor=#82b366;fontSize=20;fontStyle=1" parent="1" vertex="1">
          <mxGeometry x="235" y="90" width="120" height="60" as="geometry" />
        </mxCell>
        <mxCell id="U6kOpqA4BYuFInqFqMkD-35" value="" style="endArrow=none;dashed=1;html=1;rounded=0;entryX=0.5;entryY=1;entryDx=0;entryDy=0;" parent="1" source="U6kOpqA4BYuFInqFqMkD-34" edge="1">
          <mxGeometry width="50" height="50" relative="1" as="geometry">
            <mxPoint x="304.5" y="500" as="sourcePoint" />
            <mxPoint x="304.5" y="150" as="targetPoint" />
          </mxGeometry>
        </mxCell>
        <mxCell id="U6kOpqA4BYuFInqFqMkD-51" value="" style="endArrow=classic;html=1;rounded=0;entryX=-0.08;entryY=0.155;entryDx=0;entryDy=0;entryPerimeter=0;" parent="1" source="U6kOpqA4BYuFInqFqMkD-3" target="U6kOpqA4BYuFInqFqMkD-34" edge="1">
          <mxGeometry width="50" height="50" relative="1" as="geometry">
            <mxPoint x="390" y="320" as="sourcePoint" />
            <mxPoint x="290" y="270" as="targetPoint" />
          </mxGeometry>
        </mxCell>
        <mxCell id="U6kOpqA4BYuFInqFqMkD-52" value="addCar()" style="text;strokeColor=none;fillColor=none;html=1;fontSize=24;fontStyle=1;verticalAlign=middle;align=center;" parent="1" vertex="1">
          <mxGeometry x="160" y="230" width="100" height="40" as="geometry" />
        </mxCell>
        <mxCell id="14EIq3rW2RqsIj3UD6Gg-1" value="" style="endArrow=none;dashed=1;html=1;rounded=0;entryX=0.5;entryY=1;entryDx=0;entryDy=0;" parent="1" target="U6kOpqA4BYuFInqFqMkD-34" edge="1">
          <mxGeometry width="50" height="50" relative="1" as="geometry">
            <mxPoint x="304.5" y="500" as="sourcePoint" />
            <mxPoint x="304.5" y="150" as="targetPoint" />
          </mxGeometry>
        </mxCell>
        <mxCell id="U6kOpqA4BYuFInqFqMkD-34" value="" style="rounded=0;whiteSpace=wrap;html=1;fillColor=#d5e8d4;strokeColor=#82b366;" parent="1" vertex="1">
          <mxGeometry x="290" y="250" width="30" height="80" as="geometry" />
        </mxCell>
        <mxCell id="14EIq3rW2RqsIj3UD6Gg-2" value="" style="endArrow=classic;html=1;rounded=0;exitX=1;exitY=0.5;exitDx=0;exitDy=0;entryX=0;entryY=0.5;entryDx=0;entryDy=0;" parent="1" source="U6kOpqA4BYuFInqFqMkD-34" target="RXuOXOCUmDhPivu8_CJT-1" edge="1">
          <mxGeometry width="50" height="50" relative="1" as="geometry">
            <mxPoint x="390" y="320" as="sourcePoint" />
            <mxPoint x="440" y="270" as="targetPoint" />
          </mxGeometry>
        </mxCell>
        <mxCell id="14EIq3rW2RqsIj3UD6Gg-3" value="&amp;lt;&amp;lt;creat&amp;gt;&amp;gt;" style="text;strokeColor=none;fillColor=none;html=1;fontSize=24;fontStyle=1;verticalAlign=middle;align=center;" parent="1" vertex="1">
          <mxGeometry x="363.5" y="250" width="100" height="40" as="geometry" />
        </mxCell>
      </root>
    </mxGraphModel>
  </diagram>
</mxfile>
